<mxfile host="app.diagrams.net" modified="2023-04-15T08:40:29.633Z" agent="Mozilla/5.0 (Macintosh; Intel Mac OS X 10_15_7) AppleWebKit/537.36 (KHTML, like Gecko) Chrome/112.0.0.0 Safari/537.36" etag="cabpIcwMW3HqK6N-Hm6V" version="21.1.8" type="github">
  <diagram name="페이지-1" id="Az7i5RGAn47_kGLEj5No">
    <mxGraphModel dx="1129" dy="752" grid="1" gridSize="10" guides="1" tooltips="1" connect="1" arrows="1" fold="1" page="1" pageScale="1" pageWidth="827" pageHeight="1169" math="0" shadow="0">
      <root>
        <mxCell id="0" />
        <mxCell id="1" parent="0" />
        <mxCell id="aMvsQm4r0RMFQPnwkyYf-1" value="" style="endArrow=classic;html=1;rounded=0;strokeWidth=5;strokeColor=#808080;" edge="1" parent="1">
          <mxGeometry width="50" height="50" relative="1" as="geometry">
            <mxPoint x="190" y="362" as="sourcePoint" />
            <mxPoint x="190" y="512" as="targetPoint" />
          </mxGeometry>
        </mxCell>
        <mxCell id="aMvsQm4r0RMFQPnwkyYf-2" value="" style="endArrow=classic;html=1;rounded=0;strokeWidth=5;strokeColor=#808080;" edge="1" parent="1">
          <mxGeometry width="50" height="50" relative="1" as="geometry">
            <mxPoint x="414" y="420" as="sourcePoint" />
            <mxPoint x="414" y="570" as="targetPoint" />
          </mxGeometry>
        </mxCell>
        <mxCell id="aMvsQm4r0RMFQPnwkyYf-3" value="" style="endArrow=classic;html=1;rounded=0;strokeWidth=5;strokeColor=#808080;" edge="1" parent="1">
          <mxGeometry width="50" height="50" relative="1" as="geometry">
            <mxPoint x="640" y="470" as="sourcePoint" />
            <mxPoint x="640" y="620" as="targetPoint" />
          </mxGeometry>
        </mxCell>
        <mxCell id="aMvsQm4r0RMFQPnwkyYf-6" value="" style="rounded=0;whiteSpace=wrap;html=1;fillColor=#E6E6E6;strokeColor=none;" vertex="1" parent="1">
          <mxGeometry x="210" y="420" width="170" height="110" as="geometry" />
        </mxCell>
        <mxCell id="aMvsQm4r0RMFQPnwkyYf-7" value="" style="rounded=0;whiteSpace=wrap;html=1;fillColor=#E6E6E6;strokeColor=none;" vertex="1" parent="1">
          <mxGeometry x="450" y="460" width="170" height="110" as="geometry" />
        </mxCell>
        <mxCell id="aMvsQm4r0RMFQPnwkyYf-9" style="edgeStyle=orthogonalEdgeStyle;rounded=0;orthogonalLoop=1;jettySize=auto;html=1;exitX=1;exitY=0.5;exitDx=0;exitDy=0;" edge="1" parent="1" source="aMvsQm4r0RMFQPnwkyYf-8">
          <mxGeometry relative="1" as="geometry">
            <mxPoint x="410" y="475" as="targetPoint" />
          </mxGeometry>
        </mxCell>
        <mxCell id="aMvsQm4r0RMFQPnwkyYf-8" value="데이터" style="rounded=1;whiteSpace=wrap;html=1;" vertex="1" parent="1">
          <mxGeometry x="235" y="445" width="75" height="60" as="geometry" />
        </mxCell>
        <mxCell id="aMvsQm4r0RMFQPnwkyYf-14" style="edgeStyle=orthogonalEdgeStyle;rounded=0;orthogonalLoop=1;jettySize=auto;html=1;" edge="1" parent="1" source="aMvsQm4r0RMFQPnwkyYf-11">
          <mxGeometry relative="1" as="geometry">
            <mxPoint x="640" y="515" as="targetPoint" />
          </mxGeometry>
        </mxCell>
        <mxCell id="aMvsQm4r0RMFQPnwkyYf-11" value="데이터" style="rounded=1;whiteSpace=wrap;html=1;" vertex="1" parent="1">
          <mxGeometry x="459" y="485" width="75" height="60" as="geometry" />
        </mxCell>
        <mxCell id="aMvsQm4r0RMFQPnwkyYf-16" value="고루틴" style="text;html=1;align=center;verticalAlign=middle;resizable=0;points=[];autosize=1;strokeColor=none;fillColor=none;" vertex="1" parent="1">
          <mxGeometry x="165" y="330" width="50" height="30" as="geometry" />
        </mxCell>
        <mxCell id="aMvsQm4r0RMFQPnwkyYf-17" value="고루틴" style="text;html=1;align=center;verticalAlign=middle;resizable=0;points=[];autosize=1;strokeColor=none;fillColor=none;" vertex="1" parent="1">
          <mxGeometry x="388" y="380" width="50" height="30" as="geometry" />
        </mxCell>
        <mxCell id="aMvsQm4r0RMFQPnwkyYf-18" value="고루틴" style="text;html=1;align=center;verticalAlign=middle;resizable=0;points=[];autosize=1;strokeColor=none;fillColor=none;" vertex="1" parent="1">
          <mxGeometry x="615" y="430" width="50" height="30" as="geometry" />
        </mxCell>
        <mxCell id="aMvsQm4r0RMFQPnwkyYf-19" value="채널 1" style="text;html=1;align=center;verticalAlign=middle;resizable=0;points=[];autosize=1;strokeColor=none;fillColor=none;" vertex="1" parent="1">
          <mxGeometry x="265" y="390" width="50" height="30" as="geometry" />
        </mxCell>
        <mxCell id="aMvsQm4r0RMFQPnwkyYf-20" value="채널 2" style="text;html=1;align=center;verticalAlign=middle;resizable=0;points=[];autosize=1;strokeColor=none;fillColor=none;" vertex="1" parent="1">
          <mxGeometry x="510" y="430" width="50" height="30" as="geometry" />
        </mxCell>
        <mxCell id="aMvsQm4r0RMFQPnwkyYf-21" value="" style="rounded=1;whiteSpace=wrap;html=1;" vertex="1" parent="1">
          <mxGeometry x="100" y="732" width="120" height="60" as="geometry" />
        </mxCell>
        <mxCell id="aMvsQm4r0RMFQPnwkyYf-22" value="" style="verticalLabelPosition=bottom;outlineConnect=0;align=center;dashed=0;html=1;verticalAlign=top;shape=mxgraph.pid.misc.tank_car,_tank_wagon;" vertex="1" parent="1">
          <mxGeometry x="340" y="732" width="127" height="80" as="geometry" />
        </mxCell>
        <mxCell id="aMvsQm4r0RMFQPnwkyYf-29" value="" style="group" vertex="1" connectable="0" parent="1">
          <mxGeometry x="600" y="732" width="127" height="80" as="geometry" />
        </mxCell>
        <mxCell id="aMvsQm4r0RMFQPnwkyYf-26" value="" style="verticalLabelPosition=bottom;outlineConnect=0;align=center;dashed=0;html=1;verticalAlign=top;shape=mxgraph.pid.misc.tank_car,_tank_wagon;" vertex="1" parent="aMvsQm4r0RMFQPnwkyYf-29">
          <mxGeometry width="127" height="80" as="geometry" />
        </mxCell>
        <mxCell id="aMvsQm4r0RMFQPnwkyYf-27" value="" style="rounded=0;whiteSpace=wrap;html=1;" vertex="1" parent="aMvsQm4r0RMFQPnwkyYf-29">
          <mxGeometry x="25" y="20" width="30" height="20" as="geometry" />
        </mxCell>
        <mxCell id="aMvsQm4r0RMFQPnwkyYf-28" value="" style="rounded=0;whiteSpace=wrap;html=1;" vertex="1" parent="aMvsQm4r0RMFQPnwkyYf-29">
          <mxGeometry x="72" y="20" width="30" height="20" as="geometry" />
        </mxCell>
        <mxCell id="aMvsQm4r0RMFQPnwkyYf-30" value="프레임" style="text;html=1;align=center;verticalAlign=middle;resizable=0;points=[];autosize=1;strokeColor=none;fillColor=none;" vertex="1" parent="1">
          <mxGeometry x="135" y="702" width="50" height="30" as="geometry" />
        </mxCell>
        <mxCell id="aMvsQm4r0RMFQPnwkyYf-31" value="바퀴" style="text;html=1;align=center;verticalAlign=middle;resizable=0;points=[];autosize=1;strokeColor=none;fillColor=none;" vertex="1" parent="1">
          <mxGeometry x="385" y="702" width="40" height="30" as="geometry" />
        </mxCell>
        <mxCell id="aMvsQm4r0RMFQPnwkyYf-32" value="창문" style="text;html=1;align=center;verticalAlign=middle;resizable=0;points=[];autosize=1;strokeColor=none;fillColor=none;" vertex="1" parent="1">
          <mxGeometry x="643.5" y="702" width="40" height="30" as="geometry" />
        </mxCell>
        <mxCell id="aMvsQm4r0RMFQPnwkyYf-33" value="1초" style="text;html=1;align=center;verticalAlign=middle;resizable=0;points=[];autosize=1;strokeColor=none;fillColor=none;" vertex="1" parent="1">
          <mxGeometry x="140" y="822" width="40" height="30" as="geometry" />
        </mxCell>
        <mxCell id="aMvsQm4r0RMFQPnwkyYf-34" value="1초" style="text;html=1;align=center;verticalAlign=middle;resizable=0;points=[];autosize=1;strokeColor=none;fillColor=none;" vertex="1" parent="1">
          <mxGeometry x="385" y="822" width="40" height="30" as="geometry" />
        </mxCell>
        <mxCell id="aMvsQm4r0RMFQPnwkyYf-35" value="1초" style="text;html=1;align=center;verticalAlign=middle;resizable=0;points=[];autosize=1;strokeColor=none;fillColor=none;" vertex="1" parent="1">
          <mxGeometry x="640" y="822" width="40" height="30" as="geometry" />
        </mxCell>
      </root>
    </mxGraphModel>
  </diagram>
</mxfile>
